<?xml version="1.0" standalone="no"?><!DOCTYPE svg PUBLIC "-//W3C//DTD SVG 1.1//EN" "http://www.w3.org/Graphics/SVG/1.1/DTD/svg11.dtd"><svg t="1587795480228" class="icon" viewBox="0 0 1024 1024" version="1.1" xmlns="http://www.w3.org/2000/svg" p-id="772" xmlns:xlink="http://www.w3.org/1999/xlink" width="200" height="200"><defs><style type="text/css"></style></defs><path d="M773.61948445 38.40455111h-473.29735112c-149.66215111 0-179.61642667 34.70791111-179.75182222 176.52849778 4.66375111-0.16611555 4.66375111 0.69176889 4.66375111 0.69176889h-3.94353777c-39.21578667 0-50.12252445 32.03982222-50.12252445 71.54005333 0 39.50819555 10.90673778 71.53664 50.12252445 71.53664l-0.26282667-1.18670222v99.72167111l0.26282667-6.16561778c-39.21578667 0-50.12252445 32.02958222-50.12252445 71.52867556 0 39.51843555 10.90673778 71.54005333 50.12252445 71.54005333l-0.26282667-7.26471111v109.69429333l0.26282667-10.05112888c-39.21578667 0-50.12252445 32.02161778-50.12252445 71.51843555 0 39.51843555 2.57137778 80.36238222 41.78830222 80.36238222 0 0 0 0 7.33297778-0.07736889 1.06154667 124.47630222 29.33304889 147.43893333 180.03399111 147.43893334h473.29735111c131.71256889 0 175.09831111-31.02833778 175.09831111-155.32828445v-615.66634667c0-150.37098667-39.33639111-176.36352-175.09831111-176.36352zM699.41020445 566.92963555c25.75018667 0 39.17027555 13.82855111 40.36608 39.88935112 1.19808 26.09834667-12.32782222 42.26503111-44.36764445 42.14670222-18.31594667-0.03868445-105.69045333-2.25848889-105.69045333-2.25848889v89.74904889c0 26.08128-24.72391111 30.6176-50.64135112 30.6176-25.91175111 0-49.08145778-4.53632-49.08145777-30.6176v-89.74904889h-109.69201778c-25.69784889 0-39.88935111-13.80920889-39.88935111-39.88935111 0-17.33518222-0.33905778-5.86296889-0.23324444-7.14865778 1.97859555-24.26766222 15.67971555-32.74069333 40.12259555-32.74069333h109.69315555v-59.83345778h-109.69315555c-18.88369778 0-37.51139555-4.53859555-37.51139555-47.65013333 0-26.08810667 15.86403555-42.09777778 41.78830222-42.09777778h83.57205333l-57.02769778-52.77354667-26.64561777-26.83790222c-17.27715555-17.40344889-17.66513778-44.71921778-2.31879112-63.27182222 0.91591111-1.11047111 1.29592889-2.49287111 2.31879112-3.54417778 18.32846222-18.44565333 48.01080889-18.44565333 66.33813333 0l3.49752889 3.54417778 85.33674666 85.93294222 88.82517334-89.47712c18.32732445-18.44565333 48.00056889-18.44565333 66.31765333 0 18.31822222 18.44337778 18.31822222 48.38058667 0 66.816l-80.38172445 79.61144889h83.57660445c25.91288889 0 41.78716445 16.00967111 41.78716445 42.09777778 0 26.08924445-14.45205333 47.65013333-40.36608 47.65013333h-109.69315556v59.83345778h109.69315556z" p-id="773"></path></svg>